<?xml version="1.0" encoding="utf-8"?>
<!-- Generator: Adobe Illustrator 24.1.2, SVG Export Plug-In . SVG Version: 6.00 Build 0)  -->
<svg version="1.1" id="Calque_1" xmlns="http://www.w3.org/2000/svg" xmlns:xlink="http://www.w3.org/1999/xlink" x="0px" y="0px"
	 viewBox="0 0 464 465" style="enable-background:new 0 0 464 465;" xml:space="preserve" width="140px" height="140px">
<style type="text/css">
	.st0{fill:#7F0CF2;}
	.st1{fill:none;stroke:#000000;stroke-miterlimit:10;}
	.st2{fill:none;}
	.st3{fill:#AE0FF2;}
	.st4{fill:#F250D7;}
	.st5{fill:#415CF2;}
	.st6{fill:#05C7F2;}
	.st7{fill:#05F2DB;}
	.st8{fill:#F24405;}
	.st9{fill:#F25C05;}
	.st10{fill:#F28705;}
	.st11{fill:#F2B705;}
	.st12{fill:#F2CB05;}
	.st13{fill:#F2E205;}
	.st14{fill:#FBFAFC;}
	.st15{font-family:'AvenirNext-Bold';}
	.st16{font-size:36px;}
	.st17{fill:#FFFFFF;}
</style>
<path class="st0" d="M-92.1-1241.25l-112.97,105.65h45.51l-142.23,135.73h43.07l-297.46,223.65l116.22-161.18h-36.57l99.15-135.73
	c-34.95,0-34.95,0-34.95,0l0,0l125.97-168.12H-92.1z"/>
<path class="st1" d="M629.4-2357.72l-139,137h56l-175,176h53l-366,290l143-209h-45l122-176c-43,0-43,0-43,0l0,0l155-218H629.4z"/>
<path class="st1" d="M629.4-2357.72l-139,137h56l-175,176h53l-366,290l143-209h-45l122-176c-43,0-43,0-43,0l0,0l155-218H629.4z"/>
<path class="st1" d="M629.4-2357.72l-139,137h56l-175,176h53l-366,290l143-209h-45l122-176c-43,0-43,0-43,0l0,0l155-218H629.4z"/>
<path class="st1" d="M629.4-2357.72l-139,137h56l-175,176h53l-366,290l143-209h-45l122-176c-43,0-43,0-43,0l0,0l155-218H629.4z"/>
<path class="st1" d="M629.4-2357.72l-139,137h56l-175,176h53l-366,290l143-209h-45l122-176c-43,0-43,0-43,0l0,0l155-218H629.4z"/>
<path class="st1" d="M629.4-2357.72l-139,137h56l-175,176h53l-366,290l143-209h-45l122-176c-43,0-43,0-43,0l0,0l155-218H629.4z"/>
<path class="st1" d="M629.4-2357.72l-139,137h56l-175,176h53l-366,290l143-209h-45l122-176c-43,0-43,0-43,0l0,0l155-218H629.4z"/>
<path class="st1" d="M629.4-2357.72l-139,137h56l-175,176h53l-366,290l143-209h-45l122-176c-43,0-43,0-43,0l0,0l155-218H629.4z"/>
<path class="st1" d="M629.4-2357.72l-139,137h56l-175,176h53l-366,290l143-209h-45l122-176c-43,0-43,0-43,0l0,0l155-218H629.4z"/>
<path class="st1" d="M629.4-2357.72l-139,137h56l-175,176h53l-366,290l143-209h-45l122-176c-43,0-43,0-43,0l0,0l155-218H629.4z"/>
<path class="st1" d="M629.4-2357.72l-139,137h56l-175,176h53l-366,290l143-209h-45l122-176c-43,0-43,0-43,0l0,0l155-218H629.4z"/>
<path class="st1" d="M629.4-2357.72l-139,137h56l-175,176h53l-366,290l143-209h-45l122-176c-43,0-43,0-43,0l0,0l155-218H629.4z"/>
<path class="st1" d="M629.4-2357.72l-139,137h56l-175,176h53l-366,290l143-209h-45l122-176c-43,0-43,0-43,0l0,0l155-218H629.4z"/>
<path class="st1" d="M629.4-2357.72l-139,137h56l-175,176h53l-366,290l143-209h-45l122-176c-43,0-43,0-43,0l0,0l155-218H629.4z"/>
<path class="st1" d="M629.4-2357.72l-139,137h56l-175,176h53l-366,290l143-209h-45l122-176c-43,0-43,0-43,0l0,0l155-218H629.4z"/>
<path class="st1" d="M629.4-2357.72l-139,137h56l-175,176h53l-366,290l143-209h-45l122-176c-43,0-43,0-43,0l0,0l155-218H629.4z"/>
<path class="st1" d="M629.4-2357.72l-139,137h56l-175,176h53l-366,290l143-209h-45l122-176c-43,0-43,0-43,0l0,0l155-218H629.4z"/>
<path class="st1" d="M629.4-2357.72l-139,137h56l-175,176h53l-366,290l143-209h-45l122-176c-43,0-43,0-43,0l0,0l155-218H629.4z"/>
<path class="st1" d="M629.4-2357.72l-139,137h56l-175,176h53l-366,290l143-209h-45l122-176c-43,0-43,0-43,0l0,0l155-218H629.4z"/>
<path class="st1" d="M629.4-2357.72l-139,137h56l-175,176h53l-366,290l143-209h-45l122-176c-43,0-43,0-43,0l0,0l155-218H629.4z"/>
<path class="st1" d="M629.4-2357.72l-139,137h56l-175,176h53l-366,290l143-209h-45l122-176c-43,0-43,0-43,0l0,0l155-218H629.4z"/>
<path class="st1" d="M629.4-2357.72l-139,137h56l-175,176h53l-366,290l143-209h-45l122-176c-43,0-43,0-43,0l0,0l155-218H629.4z"/>
<path class="st1" d="M629.4-2357.72l-139,137h56l-175,176h53l-366,290l143-209h-45l122-176c-43,0-43,0-43,0l0,0l155-218H629.4z"/>
<path class="st1" d="M629.4-2357.72l-139,137h56l-175,176h53l-366,290l143-209h-45l122-176c-43,0-43,0-43,0l0,0l155-218H629.4z"/>
<path class="st1" d="M629.4-2357.72l-139,137h56l-175,176h53l-366,290l143-209h-45l122-176c-43,0-43,0-43,0l0,0l155-218H629.4z"/>
<path class="st1" d="M629.4-2357.72l-139,137h56l-175,176h53l-366,290l143-209h-45l122-176c-43,0-43,0-43,0l0,0l155-218H629.4z"/>
<path class="st1" d="M629.4-2357.72l-139,137h56l-175,176h53l-366,290l143-209h-45l122-176c-43,0-43,0-43,0l0,0l155-218H629.4z"/>
<path class="st1" d="M629.4-2357.72l-139,137h56l-175,176h53l-366,290l143-209h-45l122-176c-43,0-43,0-43,0l0,0l155-218H629.4z"/>
<path class="st1" d="M629.4-2357.72l-139,137h56l-175,176h53l-366,290l143-209h-45l122-176c-43,0-43,0-43,0l0,0l155-218H629.4z"/>
<path class="st1" d="M629.4-2357.72l-139,137h56l-175,176h53l-366,290l143-209h-45l122-176c-43,0-43,0-43,0l0,0l155-218H629.4z"/>
<path class="st1" d="M629.4-2357.72l-139,137h56l-175,176h53l-366,290l143-209h-45l122-176c-43,0-43,0-43,0l0,0l155-218H629.4z"/>
<path class="st1" d="M629.4-2357.72l-139,137h56l-175,176h53l-366,290l143-209h-45l122-176c-43,0-43,0-43,0l0,0l155-218H629.4z"/>
<path class="st1" d="M629.4-2357.72l-139,137h56l-175,176h53l-366,290l143-209h-45l122-176c-43,0-43,0-43,0l0,0l155-218H629.4z"/>
<path class="st1" d="M629.4-2357.72l-139,137h56l-175,176h53l-366,290l143-209h-45l122-176c-43,0-43,0-43,0l0,0l155-218H629.4z"/>
<path class="st1" d="M629.4-2357.72l-139,137h56l-175,176h53l-366,290l143-209h-45l122-176c-43,0-43,0-43,0l0,0l155-218H629.4z"/>
<path class="st1" d="M629.4-2357.72l-139,137h56l-175,176h53l-366,290l143-209h-45l122-176c-43,0-43,0-43,0l0,0l155-218H629.4z"/>
<path class="st1" d="M629.4-2357.72l-139,137h56l-175,176h53l-366,290l143-209h-45l122-176c-43,0-43,0-43,0l0,0l155-218H629.4z"/>
<path class="st1" d="M629.4-2357.72l-139,137h56l-175,176h53l-366,290l143-209h-45l122-176c-43,0-43,0-43,0l0,0l155-218H629.4z"/>
<path class="st1" d="M629.4-2357.72l-139,137h56l-175,176h53l-366,290l143-209h-45l122-176c-43,0-43,0-43,0l0,0l155-218H629.4z"/>
<path class="st1" d="M629.4-2357.72l-139,137h56l-175,176h53l-366,290l143-209h-45l122-176c-43,0-43,0-43,0l0,0l155-218H629.4z"/>
<path class="st1" d="M629.4-2357.72l-139,137h56l-175,176h53l-366,290l143-209h-45l122-176c-43,0-43,0-43,0l0,0l155-218H629.4z"/>
<path class="st1" d="M629.4-2357.72l-139,137h56l-175,176h53l-366,290l143-209h-45l122-176c-43,0-43,0-43,0l0,0l155-218H629.4z"/>
<path class="st1" d="M629.4-2357.72l-139,137h56l-175,176h53l-366,290l143-209h-45l122-176c-43,0-43,0-43,0l0,0l155-218H629.4z"/>
<path class="st1" d="M629.4-2357.72l-139,137h56l-175,176h53l-366,290l143-209h-45l122-176c-43,0-43,0-43,0l0,0l155-218H629.4z"/>
<path class="st1" d="M629.4-2357.72l-139,137h56l-175,176h53l-366,290l143-209h-45l122-176c-43,0-43,0-43,0l0,0l155-218H629.4z"/>
<path class="st1" d="M629.4-2357.72l-139,137h56l-175,176h53l-366,290l143-209h-45l122-176c-43,0-43,0-43,0l0,0l155-218H629.4z"/>
<path class="st1" d="M629.4-2357.72l-139,137h56l-175,176h53l-366,290l143-209h-45l122-176c-43,0-43,0-43,0l0,0l155-218H629.4z"/>
<path class="st1" d="M629.4-2357.72l-139,137h56l-175,176h53l-366,290l143-209h-45l122-176c-43,0-43,0-43,0l0,0l155-218H629.4z"/>
<path class="st1" d="M629.4-2357.72l-139,137h56l-175,176h53l-366,290l143-209h-45l122-176c-43,0-43,0-43,0l0,0l155-218H629.4z"/>
<path class="st1" d="M629.4-2357.72l-139,137h56l-175,176h53l-366,290l143-209h-45l122-176c-43,0-43,0-43,0l0,0l155-218H629.4z"/>
<path class="st1" d="M629.4-2357.72l-139,137h56l-175,176h53l-366,290l143-209h-45l122-176c-43,0-43,0-43,0l0,0l155-218H629.4z"/>
<path class="st1" d="M629.4-2357.72l-139,137h56l-175,176h53l-366,290l143-209h-45l122-176c-43,0-43,0-43,0l0,0l155-218H629.4z"/>
<path class="st1" d="M629.4-2357.72l-139,137h56l-175,176h53l-366,290l143-209h-45l122-176c-43,0-43,0-43,0l0,0l155-218H629.4z"/>
<path class="st1" d="M629.4-2357.72l-139,137h56l-175,176h53l-366,290l143-209h-45l122-176c-43,0-43,0-43,0l0,0l155-218H629.4z"/>
<path class="st1" d="M629.4-2357.72l-139,137h56l-175,176h53l-366,290l143-209h-45l122-176c-43,0-43,0-43,0l0,0l155-218H629.4z"/>
<path class="st1" d="M629.4-2357.72l-139,137h56l-175,176h53l-366,290l143-209h-45l122-176c-43,0-43,0-43,0l0,0l155-218H629.4z"/>
<path class="st1" d="M629.4-2357.72l-139,137h56l-175,176h53l-366,290l143-209h-45l122-176c-43,0-43,0-43,0l0,0l155-218H629.4z"/>
<path class="st1" d="M629.4-2357.72l-139,137h56l-175,176h53l-366,290l143-209h-45l122-176c-43,0-43,0-43,0l0,0l155-218H629.4z"/>
<path class="st1" d="M629.4-2357.72l-139,137h56l-175,176h53l-366,290l143-209h-45l122-176c-43,0-43,0-43,0l0,0l155-218H629.4z"/>
<path class="st1" d="M629.4-2357.72l-139,137h56l-175,176h53l-366,290l143-209h-45l122-176c-43,0-43,0-43,0l0,0l155-218H629.4z"/>
<path class="st1" d="M629.4-2357.72l-139,137h56l-175,176h53l-366,290l143-209h-45l122-176c-43,0-43,0-43,0l0,0l155-218H629.4z"/>
<path class="st1" d="M629.4-2357.72l-139,137h56l-175,176h53l-366,290l143-209h-45l122-176c-43,0-43,0-43,0l0,0l155-218H629.4z"/>
<path class="st1" d="M629.4-2357.72l-139,137h56l-175,176h53l-366,290l143-209h-45l122-176c-43,0-43,0-43,0l0,0l155-218H629.4z"/>
<path class="st1" d="M629.4-2357.72l-139,137h56l-175,176h53l-366,290l143-209h-45l122-176c-43,0-43,0-43,0l0,0l155-218H629.4z"/>
<path class="st1" d="M629.4-2357.72l-139,137h56l-175,176h53l-366,290l143-209h-45l122-176c-43,0-43,0-43,0l0,0l155-218H629.4z"/>
<path class="st1" d="M629.4-2357.72l-139,137h56l-175,176h53l-366,290l143-209h-45l122-176c-43,0-43,0-43,0l0,0l155-218H629.4z"/>
<path class="st1" d="M629.4-2357.72l-139,137h56l-175,176h53l-366,290l143-209h-45l122-176c-43,0-43,0-43,0l0,0l155-218H629.4z"/>
<path class="st1" d="M629.4-2357.72l-139,137h56l-175,176h53l-366,290l143-209h-45l122-176c-43,0-43,0-43,0l0,0l155-218H629.4z"/>
<path class="st1" d="M629.4-2357.72l-139,137h56l-175,176h53l-366,290l143-209h-45l122-176c-43,0-43,0-43,0l0,0l155-218H629.4z"/>
<path class="st1" d="M629.4-2357.72l-139,137h56l-175,176h53l-366,290l143-209h-45l122-176c-43,0-43,0-43,0l0,0l155-218H629.4z"/>
<path class="st1" d="M629.4-2357.72l-139,137h56l-175,176h53l-366,290l143-209h-45l122-176c-43,0-43,0-43,0l0,0l155-218H629.4z"/>
<path class="st1" d="M629.4-2357.72l-139,137h56l-175,176h53l-366,290l143-209h-45l122-176c-43,0-43,0-43,0l0,0l155-218H629.4z"/>
<path class="st1" d="M629.4-2357.72l-139,137h56l-175,176h53l-366,290l143-209h-45l122-176c-43,0-43,0-43,0l0,0l155-218H629.4z"/>
<path class="st1" d="M629.4-2357.72l-139,137h56l-175,176h53l-366,290l143-209h-45l122-176c-43,0-43,0-43,0l0,0l155-218H629.4z"/>
<path class="st1" d="M629.4-2357.72l-139,137h56l-175,176h53l-366,290l143-209h-45l122-176c-43,0-43,0-43,0l0,0l155-218H629.4z"/>
<path class="st1" d="M629.4-2357.72l-139,137h56l-175,176h53l-366,290l143-209h-45l122-176c-43,0-43,0-43,0l0,0l155-218H629.4z"/>
<path class="st2" d="M1395.4-2101.22l-139,137h56l-175,176h53l-366,290l143-209h-45l122-176c-43,0-43,0-43,0l0,0l155-218H1395.4z"/>
<path class="st3" d="M-171.1-1188.07l-73.23,70.3h29.5l-92.2,90.32h27.92l-192.82,148.82l75.34-107.25h-23.71l64.27-90.32
	c-22.65,0-22.65,0-22.65,0l0,0l81.66-111.87H-171.1z"/>
<path class="st4" d="M-246.05-1116.66l-60.16,57.36h24.24l-75.74,73.68h22.94L-493.2-864.22l61.89-87.5h-19.48l52.8-73.68
	c-18.61,0-18.61,0-18.61,0l0,0l67.09-91.27H-246.05z"/>
<path class="st5" d="M271.28-1241.22l-112.72,105.65h45.41L62.06-999.85h42.98l-296.8,223.63L-75.8-937.39h-36.49l98.93-135.72
	c-34.87,0-34.87,0-34.87,0l0,0l125.69-168.11H271.28z"/>
<path class="st6" d="M192.45-1188.05l-73.07,70.3h29.44l-91.99,90.31h27.86l-192.39,148.81l75.17-107.24h-23.66l64.13-90.31
	c-22.6,0-22.6,0-22.6,0l0,0l81.48-111.86H192.45z"/>
<path class="st7" d="M117.9-1116.22l-60.09,57.26h24.21L6.37-985.41h22.91l-158.22,121.2l61.82-87.35h-19.45l52.74-73.55
	c-18.59,0-18.59,0-18.59,0l0,0l67-91.11H117.9z"/>
<rect x="-22.49" y="-1091.69" transform="matrix(0.7041 -0.7101 0.7101 0.7041 793.3377 -227.9043)" class="st2" width="291.4" height="51.63"/>
<text transform="matrix(0.7041 -0.7101 0.7101 0.7041 72.5079 -1012.738)" class="st17 st15 st16">Thunder</text>
<rect x="-391.67" y="-1088.13" transform="matrix(0.725 -0.6888 0.6888 0.725 664.0502 -461.5881)" class="st2" width="291.4" height="51.63"/>
<text transform="matrix(0.725 -0.6888 0.6888 0.725 -298.2259 -1010.7889)" class="st14 st15 st16">Thunder</text>
<path class="st8" d="M624.54-1234.82l-112.72,105.65h45.41L415.33-993.45h42.98l-296.8,223.63l115.96-161.17h-36.49l98.93-135.72
	c-34.87,0-34.87,0-34.87,0l0,0l125.69-168.11H624.54z"/>
<path class="st9" d="M545.71-1181.64l-73.07,70.3h29.44l-91.99,90.31h27.86L245.56-872.23l75.17-107.24h-23.66l64.13-90.31
	c-22.6,0-22.6,0-22.6,0l0,0l81.48-111.86H545.71z"/>
<path class="st10" d="M471.17-1109.82l-60.09,57.26h24.21l-75.65,73.55h22.91l-158.22,121.2l61.82-87.35H266.7l52.74-73.55
	c-18.59,0-18.59,0-18.59,0l0,0l67-91.11H471.17z"/>
<rect x="328.78" y="-1085.29" transform="matrix(0.7011 -0.7131 0.7131 0.7011 897.3297 21.6386)" class="st2" width="291.4" height="51.63"/>
<text transform="matrix(0.7011 -0.7131 0.7131 0.7011 423.9943 -1006.2178)" class="st15 st16" style="fill:#FCFCFC;">Thunder</text>
<polygon class="st2" points="-13.47,-732.28 -17.45,-732.28 -17.45,-732.28 -13.47,-732.28 "/>
<path class="st0" d="M-20.12-0.44l-112.97,105.65h45.51L-229.8,240.95h43.07l-297.46,223.65l116.22-161.18h-36.57l99.15-135.73
	c-34.95,0-34.95,0-34.95,0l0,0L-214.36-0.44H-20.12z"/>
<path class="st3" d="M-99.12,52.74l-73.23,70.3h29.5l-92.2,90.32h27.92l-192.82,148.82l75.34-107.25h-23.71l64.27-90.32
	c-22.65,0-22.65,0-22.65,0l0,0l81.66-111.87H-99.12z"/>
<path class="st4" d="M-174.08,124.15l-60.16,57.36H-210l-75.74,73.68h22.94L-421.22,376.6l61.89-87.5h-19.48l52.8-73.68
	c-18.61,0-18.61,0-18.61,0l0,0l67.09-91.27H-174.08z"/>
<rect x="-319.7" y="152.68" transform="matrix(0.725 -0.6888 0.6888 0.725 -170.7981 -70.7545)" class="st2" width="291.4" height="51.63"/>
<text transform="matrix(0.725 -0.6888 0.6888 0.725 -226.2488 230.0231)" class="st14 st15 st16">Thunder</text>
<path class="st11" d="M983.56-1235.28l-112.72,105.65h45.41L774.34-993.91h42.98l-296.8,223.63l115.96-161.17h-36.49l98.93-135.72
	c-34.87,0-34.87,0-34.87,0l0,0l125.69-168.11H983.56z"/>
<path class="st12" d="M904.73-1182.11l-73.07,70.3h29.44l-91.99,90.31h27.86L604.57-872.69l75.17-107.24h-23.66l64.13-90.31
	c-22.6,0-22.6,0-22.6,0l0,0l81.48-111.86H904.73z"/>
<path class="st13" d="M830.19-1110.28l-60.09,57.26h24.21l-75.65,73.55h22.91l-158.22,121.2l61.82-87.35h-19.45l52.74-73.55
	c-18.59,0-18.59,0-18.59,0l0,0l67-91.11H830.19z"/>
<rect x="687.79" y="-1085.75" transform="matrix(0.7011 -0.7131 0.7131 0.7011 1004.9778 277.5103)" class="st2" width="291.4" height="51.63"/>
<text transform="matrix(0.7011 -0.7131 0.7131 0.7011 783.0104 -1006.6797)" class="st15 st16" style="fill:#FCFCFC;">Thunder</text>
<rect x="164.4" y="152.9" transform="matrix(0.725 -0.6888 0.6888 0.725 -37.8092 262.7395)" class="st2" width="291.4" height="51.63"/>
<text transform="matrix(0.725 -0.6888 0.6888 0.725 257.8464 230.2418)" class="st14 st15 st16">Thunder</text>
<path class="st5" d="M465.82,0.32L353.11,105.96h45.41L256.61,241.68h42.98L2.79,465.32l115.96-161.17H82.26l98.93-135.72
	c-34.87,0-34.87,0-34.87,0l0,0L272.01,0.32H465.82z"/>
<path class="st6" d="M386.99,53.49l-73.07,70.3h29.44l-91.99,90.31h27.86L86.84,362.91l75.17-107.24h-23.66l64.13-90.31
	c-22.6,0-22.6,0-22.6,0l0,0l81.48-111.86H386.99z"/>
<path class="st7" d="M312.45,125.32l-60.09,57.26h24.21l-75.65,73.55h22.91L65.62,377.32l61.82-87.35h-19.45l52.74-73.55
	c-18.59,0-18.59,0-18.59,0l0,0l67-91.11H312.45z"/>
<rect x="172.06" y="149.84" transform="matrix(0.7041 -0.7101 0.7101 0.7041 -30.7117 277.6158)" class="st2" width="291.4" height="51.63"/>
<text transform="matrix(0.7041 -0.7101 0.7101 0.7041 267.0553 228.7962)" class="st17 st15 st16">Thunder</text>
<path class="st8" d="M948.16-0.1L835.45,105.55h45.41L738.95,241.27h42.98L485.13,464.9l115.96-161.17H564.6l98.93-135.72
	c-34.87,0-34.87,0-34.87,0l0,0L754.35-0.1H948.16z"/>
<path class="st9" d="M869.34,53.08l-73.07,70.3h29.44l-91.99,90.31h27.86L569.18,362.49l75.17-107.24h-23.66l64.13-90.31
	c-22.6,0-22.6,0-22.6,0l0,0L743.7,53.08H869.34z"/>
<path class="st10" d="M794.79,124.9l-60.09,57.26h24.21l-75.65,73.55h22.91l-158.22,121.2l61.82-87.35h-19.45l52.74-73.55
	c-18.59,0-18.59,0-18.59,0l0,0l67-91.11H794.79z"/>
<rect x="652.4" y="149.43" transform="matrix(0.7011 -0.7131 0.7131 0.7011 113.6052 621.4969)" class="st2" width="291.4" height="51.63"/>
<text transform="matrix(0.7011 -0.7131 0.7131 0.7011 747.6149 228.5009)" class="st15 st16" style="fill:#FCFCFC;">Thunder</text>
<path class="st11" d="M1430.05-0.44L1317.33,105.2h45.41l-141.91,135.72h42.98l-296.8,223.63l115.96-161.17h-36.49l98.93-135.72
	c-34.87,0-34.87,0-34.87,0l0,0L1236.24-0.44H1430.05z"/>
<path class="st12" d="M1351.22,52.73l-73.07,70.3h29.44l-91.99,90.31h27.86l-192.39,148.81l75.17-107.24h-23.66l64.13-90.31
	c-22.6,0-22.6,0-22.6,0l0,0l81.48-111.86H1351.22z"/>
<path class="st13" d="M1276.68,124.56l-60.09,57.26h24.21l-75.65,73.55h22.91l-158.22,121.2l61.82-87.35h-19.45l52.74-73.55
	c-18.59,0-18.59,0-18.59,0l0,0l67-91.11H1276.68z"/>
<rect x="1134.28" y="149.08" transform="matrix(0.7011 -0.7131 0.7131 0.7011 257.8994 965.0186)" class="st2" width="291.4" height="51.63"/>
<text transform="matrix(0.7011 -0.7131 0.7131 0.7011 1229.4989 228.1543)" class="st15 st16" style="fill:#FCFCFC;">Thunder</text>
</svg>
